<?xml version="1.0" standalone="no"?>
<!DOCTYPE svg PUBLIC "-//W3C//DTD SVG 1.0//EN" "http://www.w3.org/TR/2001/REC-SVG-20010904/DTD/svg10.dtd">
<svg xmlns="http://www.w3.org/2000/svg" xmlns:xlink="http://www.w3.org/1999/xlink" id="body_1" width="300" height="240">

<g transform="matrix(0.044999998 0 0 0.044999998 0 0)">
	<g transform="matrix(1.3333333 0 -0 -1.3333333 0 5333.3335)">
		<g transform="matrix(0.1 0 0 0.1 0 0)">
            <path d="M21900.6 28611.2C 23782.299 28611.2 25307.799 27085.7 25307.799 25204.1C 25307.799 23924.5 24604.398 23386.7 24399.6 22217C 24219.1 21187 23727.299 20355.3 22486.6 20161.8C 22780.4 20303.201 23015.299 20547.701 23144.299 20848.4C 22890.398 20799.701 22717.299 20810.1 22561.7 20838C 23111 20814.2 24100.398 21086.4 23919.6 21943.9C 23881.4 22125.201 23778.799 22323.3 23654.799 22483.201C 23110.2 23184.701 23437.498 23764.8 22919.799 24038.8C 22677.898 24166.9 22289.7 24195.9 21900.6 24224.4C 21511.6 24195.9 21123.4 24166.9 20881.4 24038.8C 20363.8 23764.8 20691 23184.701 20146.5 22483.201C 20022.4 22323.3 19919.9 22125.201 19881.7 21943.9C 19700.799 21086.4 20690.299 20814.201 21239.6 20838C 21083.9 20810.1 20910.799 20799.7 20656.9 20848.4C 20785.9 20547.701 21020.8 20303.201 21314.6 20161.8C 20074 20355.3 19582.2 21187 19401.7 22217C 19196.799 23386.7 18493.5 23924.5 18493.5 25204.1C 18493.5 27085.7 20018.9 28611.2 21900.6 28611.2" stroke="none" fill="#996633" fill-rule="nonzero" />
            <path d="M23137.4 23847.3C 22727.1 24524.102 21999.9 24794.9 21900.6 28171.102C 21801.299 24794.902 21074.2 24524.102 20663.9 23847.3C 20713.1 23921.602 20781.5 23985.9 20881.4 24038.8C 21123.4 24166.9 21511.6 24195.9 21900.6 24224.4C 22289.7 24195.9 22677.9 24166.9 22919.799 24038.8C 23019.7 23985.9 23088.1 23921.602 23137.398 23847.3" stroke="none" fill="#AF753B" fill-rule="nonzero" />
            <path d="M22376.7 22338.3L22491 22536.3L22605.2 22734.201C 22706.2 22909.002 22706.2 23109.102 22605.2 23283.9C 22504.299 23458.701 22331 23558.701 22129.2 23558.701L22129.2 23558.701L21900.6 23558.701L21672.1 23558.701C 21470.2 23558.701 21296.9 23458.701 21196 23283.9C 21095.1 23109.1 21095.1 22909 21196 22734.201L21196 22734.201L21310.3 22536.3L21424.5 22338.3C 21507.4 22194.9 21638.9 22101.8 21795 22073C 21794.8 22061.3 21794.1 22050.2 21792.7 22039.5C 21739.7 21638 20848.2 20965.4 20205.398 21526.2C 20664.2 20923.7 21498.098 21226.6 21900.598 21714.398C 22303.098 21226.598 23137.098 20923.7 23595.797 21526.2C 22953.098 20965.398 22061.496 21638 22008.598 22039.5C 22007.098 22050.2 22006.398 22061.3 22006.297 22073C 22162.297 22101.8 22293.896 22194.9 22376.697 22338.3" stroke="none" fill="#000000" fill-rule="nonzero" />
            <path d="M22869.6 28471.5C 25226.6 27672.7 25324.799 25543.8 24238.7 22708.7C 23660.2 21198.5 25040.299 19384.2 26398.2 20545.299C 27442.799 21438.498 27492.6 23220.498 27023.2 24639.6C 25912 27999.2 23359.1 28425 22869.6 28471.5" stroke="none" fill="#4E221C" fill-rule="nonzero" />
            <path d="M20933.8 28471.5C 18576.8 27672.7 18478.602 25543.8 19564.602 22708.7C 20143.201 21198.5 18763.102 19384.2 17405.201 20545.299C 16360.602 21438.498 16310.801 23220.498 16780.102 24639.6C 17891.402 27999.2 20444.3 28425 20933.8 28471.5" stroke="none" fill="#4E221C" fill-rule="nonzero" />
            <path d="M26043.9 21232.5C 25339.5 20630.2 24629.201 20828.5 24189.4 21369.6C 24477.3 20383.7 25443.201 19728.799 26398.201 20545.299C 27442.8 21438.498 27492.602 23220.6 27023.201 24639.6C 26846.602 25173.6 26633.502 25633.5 26398.102 26029.6C 26495.402 25810.9 26586.201 25576.9 26668.902 25326.799C 27138.303 23907.7 27088.402 22125.6 26043.902 21232.498" stroke="none" fill="#411D17" fill-rule="nonzero" />
            <path d="M17759.5 21232.5C 18463.9 20630.2 19174.1 20828.5 19614 21369.6C 19326.1 20383.7 18360.1 19728.799 17405.2 20545.299C 16360.6 21438.498 16310.799 23220.6 16780.1 24639.6C 16956.799 25173.6 17169.799 25633.5 17405.299 26029.6C 17307.998 25810.9 17217.299 25576.9 17134.498 25326.799C 16665.098 23907.7 16714.998 22125.6 17759.498 21232.498" stroke="none" fill="#411D17" fill-rule="nonzero" />
            <path d="M24433.8 25133.8C 23937.602 24374.3 23307.9 24839.602 22889.4 24908.201C 23198.6 26210.701 24285.3 25597.4 24433.8 25133.8" stroke="none" fill="#E6E6E6" fill-rule="nonzero" />
            <path d="M23924.8 25625.7C 24088.3 25501.2 24169.4 25286 24112.9 25075.2C 24062.4 24886.398 23914.5 24749.7 23737.701 24704.5C 23590.002 24704.5 23443.502 24742.3 23305.102 24785.9C 23133.502 24908.8 23047.002 25129.3 23104.902 25345.3C 23119.402 25399.201 23141.803 25448.8 23170.502 25493.3C 23391.902 25726.9 23678.701 25728.5 23924.803 25625.701" stroke="none" fill="#CC9933" fill-rule="nonzero" />
            <path d="M23716.4 25611.2C 23937.8 25551.898 24069.3 25324.2 24009.9 25102.799C 23950.6 24881.299 23722.9 24749.898 23501.5 24809.2C 23280 24868.5 23148.6 25096.2 23207.9 25317.7C 23267.201 25539.1 23494.9 25670.5 23716.4 25611.2" stroke="none" fill="#996633" fill-rule="nonzero" />
            <path d="M23677.9 25467.7C 23820.201 25429.7 23904.6 25283.398 23866.5 25141.2C 23828.4 24999 23682.2 24914.5 23539.9 24952.6C 23397.701 24990.799 23313.201 25137 23351.4 25279.2C 23389.5 25421.5 23535.701 25505.898 23677.9 25467.7" stroke="none" fill="#000000" fill-rule="nonzero" />
            <path d="M23848.3 25422.1C 23896.4 25409.2 23925.102 25359.7 23912.102 25311.5C 23899.201 25263.4 23849.701 25234.8 23801.502 25247.7C 23753.303 25260.6 23724.803 25310.1 23737.701 25358.299C 23750.602 25406.398 23800.102 25434.998 23848.3 25422.1" stroke="none" fill="#FFFFFF" fill-rule="nonzero" />
            <path d="M22889.8 24909.7C 23077.102 25696.5 23548.701 25782.898 23924.8 25625.799C 24170.3 25523.2 24375.201 25316.799 24433.9 25133.7C 24441.8 25145.898 24449.701 25158.299 24457.701 25171.1C 24363.502 25713 23085.002 26242.1 22889.8 24909.7" stroke="none" fill="#000000" fill-rule="nonzero" />
            <path d="M24425.9 25121.9C 24211.8 24800.5 23973.201 24704.5 23737.701 24704.5C 23590.002 24704.5 23443.502 24742.3 23305.102 24785.9C 23154.102 24833.4 23012.602 24888 22889.402 24908.201C 23385.402 24687.701 24098.002 24426.701 24425.902 25121.9" stroke="none" fill="#000000" fill-rule="nonzero" />
            <path d="M19367.5 25133.8C 19863.6 24374.3 20493.3 24839.602 20911.8 24908.201C 20602.602 26210.701 19515.9 25597.4 19367.5 25133.8" stroke="none" fill="#E6E6E6" fill-rule="nonzero" />
            <path d="M19876.5 25625.7C 19712.9 25501.2 19631.8 25286 19688.3 25075.2C 19738.9 24886.398 19886.8 24749.7 20063.602 24704.5C 20211.3 24704.5 20357.701 24742.3 20496.201 24785.9C 20667.8 24908.8 20754.201 25129.3 20696.4 25345.3C 20681.9 25399.201 20659.5 25448.8 20630.8 25493.3C 20409.4 25726.9 20122.5 25728.5 19876.5 25625.701" stroke="none" fill="#CC9933" fill-rule="nonzero" />
            <path d="M20084.9 25611.2C 19863.4 25551.898 19732 25324.2 19791.3 25102.799C 19850.701 24881.299 20078.3 24749.898 20299.8 24809.2C 20521.3 24868.5 20652.701 25096.2 20593.3 25317.7C 20534 25539.1 20306.3 25670.5 20084.9 25611.2" stroke="none" fill="#996633" fill-rule="nonzero" />
            <path d="M20123.3 25467.7C 19981.102 25429.7 19896.701 25283.398 19934.8 25141.2C 19972.9 24999 20119.102 24914.5 20261.3 24952.6C 20403.602 24990.799 20488 25137 20449.9 25279.2C 20411.8 25421.5 20265.6 25505.898 20123.3 25467.7" stroke="none" fill="#000000" fill-rule="nonzero" />
            <path d="M19953 25422.1C 19904.8 25409.2 19876.2 25359.7 19889.1 25311.5C 19902.1 25263.4 19951.5 25234.8 19999.7 25247.7C 20047.898 25260.6 20076.5 25310.1 20063.6 25358.299C 20050.7 25406.398 20001.2 25434.998 19953 25422.1" stroke="none" fill="#FFFFFF" fill-rule="nonzero" />
            <path d="M20911.5 24909.7C 20724.1 25696.5 20252.6 25782.898 19876.5 25625.799C 19630.9 25523.2 19426.1 25316.799 19367.4 25133.7C 19359.4 25145.898 19351.5 25158.299 19343.6 25171.1C 19437.7 25713 20716.2 26242.1 20911.5 24909.7" stroke="none" fill="#000000" fill-rule="nonzero" />
            <path d="M19375.3 25121.9C 19589.5 24800.5 19828.102 24704.5 20063.602 24704.5C 20211.201 24704.5 20357.701 24742.3 20496.201 24785.9C 20647.201 24833.4 20788.602 24888 20911.8 24908.201C 20415.9 24687.701 19703.3 24426.701 19375.3 25121.9" stroke="none" fill="#000000" fill-rule="nonzero" />
            <path d="M22712 22248.6C 22731.9 22216.7 22722.2 22174.799 22690.4 22154.799C 22658.5 22134.898 22616.6 22144.6 22596.701 22176.398C 22576.701 22208.299 22586.4 22250.2 22618.3 22270.098C 22650.102 22290.098 22692.102 22280.398 22712 22248.598" stroke="none" fill="#CCCCCC" fill-rule="nonzero" />
            <path d="M22954.3 22193.8C 22974.201 22162 22964.5 22120.102 22932.701 22100.102C 22900.8 22080.201 22858.9 22089.902 22838.9 22121.8C 22819 22153.602 22828.701 22195.5 22860.6 22215.4C 22892.4 22235.4 22934.4 22225.701 22954.299 22193.8" stroke="none" fill="#CCCCCC" fill-rule="nonzero" />
            <path d="M23182.5 22119.1C 23202.4 22087.299 23192.7 22045.299 23160.9 22025.4C 23129 22005.5 23087.1 22015.201 23067.201 22047C 23047.3 22078.9 23057.002 22120.8 23088.8 22140.7C 23120.602 22160.7 23162.602 22151 23182.5 22119.1" stroke="none" fill="#CCCCCC" fill-rule="nonzero" />
            <path d="M22636.8 22024.8C 22656.701 21992.9 22647.102 21951 22615.201 21931.102C 22583.4 21911.201 22541.4 21920.8 22521.502 21952.701C 22501.602 21984.602 22511.303 22026.502 22543.102 22046.4C 22575.002 22066.3 22616.902 22056.701 22636.8 22024.8" stroke="none" fill="#CCCCCC" fill-rule="nonzero" />
            <path d="M22879.1 21970.1C 22899 21938.2 22889.299 21896.299 22857.5 21876.4C 22825.6 21856.5 22783.7 21866.1 22763.8 21898C 22743.9 21929.9 22753.5 21971.8 22785.4 21991.7C 22817.201 22011.6 22859.201 22001.898 22879.1 21970.1" stroke="none" fill="#CCCCCC" fill-rule="nonzero" />
            <path d="M23107.3 21895.4C 23127.201 21863.5 23117.602 21821.6 23085.701 21801.701C 23053.8 21781.8 23011.9 21791.502 22992.002 21823.3C 22972.102 21855.201 22981.803 21897.102 23013.602 21917C 23045.502 21936.9 23087.402 21927.2 23107.3 21895.4" stroke="none" fill="#CCCCCC" fill-rule="nonzero" />
            <path d="M22561.7 21801.1C 22581.6 21769.2 22571.898 21727.299 22540 21707.299C 22508.2 21687.398 22466.2 21697.1 22446.4 21728.898C 22426.4 21760.799 22436.1 21802.7 22467.9 21822.7C 22499.8 21842.6 22541.701 21832.898 22561.701 21801.1" stroke="none" fill="#CCCCCC" fill-rule="nonzero" />
            <path d="M22803.9 21746.3C 22823.8 21714.5 22814.201 21672.602 22782.3 21652.602C 22750.5 21632.701 22708.602 21642.402 22688.602 21674.3C 22668.701 21706.102 22678.402 21748 22710.201 21767.9C 22742.102 21787.9 22784.002 21778.201 22803.9 21746.3" stroke="none" fill="#CCCCCC" fill-rule="nonzero" />
            <path d="M23032.2 21671.6C 23052.1 21639.799 23042.398 21597.799 23010.5 21577.9C 22978.7 21558 22936.8 21567.701 22916.9 21599.5C 22896.9 21631.4 22906.6 21673.3 22938.4 21693.3C 22970.3 21713.201 23012.3 21703.5 23032.201 21671.602" stroke="none" fill="#CCCCCC" fill-rule="nonzero" />
            <path d="M21089.3 22248.6C 21069.3 22216.7 21079 22174.799 21110.9 22154.799C 21142.701 22134.898 21184.701 22144.6 21204.6 22176.398C 21224.5 22208.299 21214.799 22250.2 21183 22270.098C 21151.1 22290.098 21109.2 22280.398 21089.3 22248.598" stroke="none" fill="#CCCCCC" fill-rule="nonzero" />
            <path d="M20847 22193.8C 20827.1 22162 20836.7 22120.102 20868.6 22100.102C 20900.4 22080.201 20942.4 22089.902 20962.299 22121.8C 20982.2 22153.602 20972.498 22195.5 20940.7 22215.4C 20908.799 22235.4 20866.898 22225.701 20847 22193.8" stroke="none" fill="#CCCCCC" fill-rule="nonzero" />
            <path d="M20618.8 22119.1C 20598.9 22087.299 20608.5 22045.299 20640.4 22025.4C 20672.201 22005.5 20714.1 22015.201 20734.1 22047C 20754 22078.9 20744.299 22120.8 20712.5 22140.7C 20680.6 22160.7 20638.7 22151 20618.8 22119.1" stroke="none" fill="#CCCCCC" fill-rule="nonzero" />
            <path d="M21164.4 22024.8C 21144.5 21992.9 21154.201 21951 21186 21931.102C 21217.9 21911.201 21259.8 21920.8 21279.8 21952.701C 21299.602 21984.602 21290 22026.502 21258.102 22046.4C 21226.3 22066.3 21184.402 22056.701 21164.402 22024.8" stroke="none" fill="#CCCCCC" fill-rule="nonzero" />
            <path d="M20922.1 21970.1C 20902.2 21938.2 20911.9 21896.299 20943.799 21876.4C 20975.6 21856.5 21017.6 21866.1 21037.398 21898C 21057.398 21929.9 21047.7 21971.8 21015.799 21991.7C 20983.998 22011.6 20942.1 22001.898 20922.1 21970.1" stroke="none" fill="#CCCCCC" fill-rule="nonzero" />
            <path d="M20693.9 21895.4C 20674 21863.5 20683.701 21821.6 20715.5 21801.701C 20747.4 21781.8 20789.4 21791.502 20809.2 21823.3C 20829.2 21855.201 20819.5 21897.102 20787.7 21917C 20755.799 21936.9 20713.898 21927.2 20693.898 21895.4" stroke="none" fill="#CCCCCC" fill-rule="nonzero" />
            <path d="M21239.6 21801.1C 21219.7 21769.2 21229.4 21727.299 21261.2 21707.299C 21293.1 21687.398 21335 21697.1 21354.898 21728.898C 21374.799 21760.799 21365.2 21802.7 21333.299 21822.7C 21301.498 21842.6 21259.498 21832.898 21239.6 21801.1" stroke="none" fill="#CCCCCC" fill-rule="nonzero" />
            <path d="M20997.3 21746.3C 20977.4 21714.5 20987 21672.602 21018.9 21652.602C 21050.8 21632.701 21092.701 21642.402 21112.6 21674.3C 21132.5 21706.102 21122.799 21748 21091 21767.9C 21059.2 21787.9 21017.2 21778.201 20997.3 21746.3" stroke="none" fill="#CCCCCC" fill-rule="nonzero" />
            <path d="M20769.1 21671.6C 20749.2 21639.799 20758.9 21597.799 20790.7 21577.9C 20822.5 21558 20864.5 21567.701 20884.398 21599.5C 20904.299 21631.4 20894.598 21673.3 20862.799 21693.3C 20830.898 21713.201 20788.998 21703.5 20769.1 21671.602" stroke="none" fill="#CCCCCC" fill-rule="nonzero" />
            <path d="M23307.8 25834C 22895.701 25559.2 22885.4 25034 22889.8 24909.7C 23085 26242.1 24363.5 25713 24457.701 25171.1C 24465.102 25238.299 24452.3 25314.299 24452.3 25314.299L24452.3 25314.299L24495.3 25288.498C 24237.602 25915.598 23685.701 25838.197 23685.701 25838.197L23685.701 25838.197L23728.701 25889.797C 23428.102 25941.396 23294.9 25752.396 23294.9 25752.396C 23303.5 25799.596 23307.8 25833.996 23307.8 25833.996" stroke="none" fill="#AF753B" fill-rule="nonzero" />
            <path d="M20493.5 25834C 20905.6 25559.2 20915.9 25034 20911.5 24909.7C 20716.2 26242.1 19437.7 25713 19343.6 25171.1C 19336.1 25238.299 19348.9 25314.299 19348.9 25314.299L19348.9 25314.299L19306 25288.498C 19563.7 25915.598 20115.6 25838.197 20115.6 25838.197L20115.6 25838.197L20072.6 25889.797C 20373.2 25941.396 20506.4 25752.396 20506.4 25752.396C 20497.8 25799.596 20493.5 25833.996 20493.5 25833.996" stroke="none" fill="#AF753B" fill-rule="nonzero" />
            <path d="M23646.1 28113C 25100.1 27107.9 25033.7 25206.4 24109.299 22793.4C 23915.398 22287.4 23941.398 21747.3 24112.799 21296.4C 24134.1 21339.201 24154.299 21382.8 24173.398 21427.201C 24068.2 21829.102 24074.998 22281.102 24238.7 22708.701C 25189.7 25191.3 25232.7 27132.402 23646.1 28113" stroke="none" fill="#80562C" fill-rule="nonzero" />
            <path d="M20157.3 28113C 18703.3 27107.9 18769.701 25206.4 19694.102 22793.4C 19887.902 22287.4 19862.002 21747.3 19690.602 21296.4C 19669.3 21339.201 19649.102 21382.8 19630.002 21427.201C 19735.201 21829.102 19728.402 22281.102 19564.602 22708.701C 18613.602 25191.3 18570.701 27132.402 20157.3 28113" stroke="none" fill="#80562C" fill-rule="nonzero" />
            <path d="M21615.5 14912.3C 21616.4 14058.8 21631.9 13162 21812.6 12327.5C 22132.6 10849.8 22973.5 10137 24464.1 10784.5C 25947.6 11389.2 27096.5 12295.7 28276.6 13352C 29672.4 14601.2 31012.5 16005.4 33014.2 16021.7C 35301.8 16040.3 35198.598 12931.801 33745.8 11874.801C 32960.6 11303.501 32064.5 11489.201 31284.3 11917.4C 31203.102 11740.601 31087.5 11582.9 30945.8 11453C 31931.4 10896 33071.5 10676.2 34082.6 11411.8C 35976.3 12789.6 35886.3 16617.5 33009.6 16594.2C 30822.8 16576.398 29422.3 15145.699 27894.8 13778.499C 26709.201 12717.399 25710 11951.399 24238.701 11310.699C 22062.102 10362.999 22189.4 13556.899 22187.9 14912.699L22187.9 14912.699L21615.5 14912.699L21615.5 14912.299" stroke="none" fill="#B3B3B3" fill-rule="nonzero" />
            <path d="M25902.1 28358.7C 27535.299 27138.799 28592.7 25190.299 28592.7 22994.898L28592.7 22994.898L28878.799 22994.898C 28878.799 25287.2 27773.398 27321.398 26066.498 28593.299C 26115.098 28768.1 26048.398 28962.1 25888.799 29067.1C 25704.799 29188.1 25515.299 29300.799 25320.998 29404.7C 25111.998 29516.398 24851.598 29437.5 24739.898 29228.398C 24628.2 29019.398 24707.2 28759.098 24916.098 28647.299L24916.098 28647.299L24916.898 28646.898C 25088.299 28555.2 25255.098 28455.998 25416.898 28349.7C 25568.998 28249.6 25761.898 28259.1 25902.098 28358.7" stroke="none" fill="#B3B3B3" fill-rule="nonzero" />
            <path d="M21901.7 16590.2C 18364.5 16590.2 15496.999 19457.6 15496.999 22994.898L15496.999 22994.898L14638.299 22994.898C 14638.299 19127.598 17660.799 15966.698 21472.299 15744.398L21472.299 15744.398L21472.299 14912.698L22331.1 14912.698L22331.1 15744.398C 26142.6 15966.698 29165.1 19127.598 29165.1 22994.898L29165.1 22994.898L28878.799 22994.898L28592.7 22994.898L28306.398 22994.898C 28306.398 19457.598 25438.898 16590.2 21901.7 16590.2" stroke="none" fill="#000000" fill-rule="nonzero" />
            <path d="M17901.3 28358.7C 16268.101 27138.799 15210.801 25190.299 15210.801 22994.898L15210.801 22994.898L14924.501 22994.898C 14924.501 25287.2 16030.001 27321.398 17736.9 28593.299C 17688.4 28768.1 17755 28962.1 17914.6 29067.1C 18098.6 29188.1 18288.1 29300.799 18482.4 29404.7C 18691.5 29516.398 18951.701 29437.5 19063.5 29228.398C 19175.2 29019.398 19096.2 28759.098 18887.2 28647.299L18887.2 28647.299L18886.5 28646.898C 18715.1 28555.2 18548.3 28455.998 18386.5 28349.7C 18234.4 28249.6 18041.5 28259.1 17901.3 28358.7" stroke="none" fill="#B3B3B3" fill-rule="nonzero" />
            <path d="M30556.9 12521C 30556.9 12195 30292.6 11930.7 29966.6 11930.7C 29640.5 11930.7 29376.1 12195 29376.1 12521C 29376.1 12847.1 29640.5 13111.5 29966.6 13111.5C 30292.6 13111.5 30556.9 12847.1 30556.9 12521zM28517.4 12521C 28517.4 11720.7 29166.201 11071.9 29966.6 11071.9C 30344.1 11071.9 30688 11216.301 30945.9 11452.9C 31087.5 11582.801 31203.201 11740.5 31284.4 11917.4C 31368.701 12101.2 31415.701 12305.601 31415.701 12521C 31415.701 13321.4 30766.9 13970.2 29966.602 13970.2C 29166.201 13970.2 28517.402 13321.4 28517.402 12521" stroke="none" fill="#000000" fill-rule="nonzero" />
            <path d="M19580.6 19636.6C 19620.5 19466.2 19677.2 19300 19747.799 19139.9C 19762.998 19218.1 19782.299 19378.6 19730.1 19538.701C 19730.1 19538.701 19830.299 19334.8 19772 19086.502C 19873.3 18868.602 20001.1 18662.602 20149.2 18473.701C 20141.1 18631.002 20102.7 18932.602 19936.7 19202.701C 19936.7 19202.701 20211.1 18872.102 20219 18387.8C 20349.1 18233.102 20493.2 18091.102 20647.5 17964.8C 20643.7 18127.701 20611 18521.602 20396.4 18870.602C 20396.4 18870.602 20723.3 18476.701 20727.6 17901.402C 20874.2 17789.203 21029.299 17691.002 21189.9 17609.402C 21185.5 17779.602 21150.5 18180.203 20932.1 18535.602C 20932.1 18535.602 21256.7 18144.402 21271.9 17569.402C 21759.1 17341.602 22292.1 17266.502 22794.3 17410.502C 22241.9 17357.803 21909.201 17497.402 21746.8 17597.803C 21828 19364.402 20347.701 19279.104 19488.201 20272.502C 18737.8 18521.102 19881.602 16573.102 21646.701 17261.002C 21443.201 17324.402 21251.502 17408.602 21073.102 17509.701C 20589.102 17444.4 20217.002 17663.201 20217.002 17663.201C 20509.803 17542.8 20813.102 17550.002 20976.602 17566.8C 20819.201 17664.102 20672.902 17774.701 20538.8 17895.8C 20089.4 17895 19856 18139.201 19856 18139.201C 20083.3 17982.002 20334.7 17959.4 20464.2 17965.4C 20329.2 18095.701 20207.5 18236.8 20100.398 18385.3C 19727.799 18474.602 19583.2 18723.602 19583.2 18723.602C 19738.5 18549.602 19939.799 18480.3 20049.2 18458.602C 19918.5 18651.402 19811.898 18855.502 19731.7 19064.3C 19543.1 19172.102 19500.7 19329.5 19500.7 19329.5C 19558.5 19214.7 19653.1 19145.8 19713.2 19113.6C 19650.5 19286.4 19605.799 19462.1 19580.6 19636.6" stroke="none" fill="#99CC33" fill-rule="nonzero" />
            <path d="M24316 19251.7C 24287.5 19130 24247.1 19011.299 24196.6 18896.898C 24185.7 18952.7 24171.9 19067.398 24209.2 19181.7C 24209.2 19181.7 24137.6 19036.1 24179.299 18858.7C 24106.898 18703 24015.7 18555.898 23909.898 18421C 23915.598 18533.4 23943.098 18748.8 24061.598 18941.7C 24061.598 18941.7 23865.598 18705.5 23859.998 18359.6C 23767.098 18249.1 23664.197 18147.7 23553.898 18057.5C 23556.598 18173.8 23579.998 18455.2 23733.2 18704.5C 23733.2 18704.5 23499.7 18423.1 23496.7 18012.2C 23391.898 17932 23281.2 17861.898 23166.398 17803.6C 23169.498 17925.1 23194.598 18211.4 23350.598 18465.2C 23350.598 18465.2 23118.697 18185.7 23107.898 17775C 22759.898 17612.3 22379.098 17558.6 22020.398 17661.5C 22414.898 17623.8 22652.7 17723.5 22768.7 17795.3C 22710.7 19057.201 23768.1 18996.3 24382 19705.9C 24918.1 18454.8 24101 17063.3 22840.1 17554.701C 22985.5 17600.002 23122.4 17660.102 23249.9 17732.4C 23595.6 17685.701 23861.4 17842 23861.4 17842C 23652.201 17756 23435.6 17761.2 23318.8 17773.2C 23431.201 17842.6 23535.701 17921.6 23631.5 18008.2C 23952.6 18007.6 24119.3 18182 24119.3 18182C 23956.9 18069.7 23777.3 18053.6 23684.8 18057.9C 23781.3 18150.9 23868.201 18251.701 23944.701 18357.9C 24210.9 18421.6 24314.201 18599.5 24314.201 18599.5C 24203.201 18475.2 24059.4 18425.6 23981.3 18410.2C 24074.602 18547.898 24150.8 18693.7 24208.102 18842.898C 24342.8 18919.799 24373.102 19032.299 24373.102 19032.299C 24331.8 18950.299 24264.3 18901.1 24221.201 18878.1C 24266.102 19001.5 24298.002 19127 24316.002 19251.7" stroke="none" fill="#99CC33" fill-rule="nonzero" />
		</g>
	</g>
</g>
</svg>